# xmcd CD database file
#
# Track frame offsets:
#        150
#        23593
#        42486
#        60861
#        83930
#        103027
#        124460
#        142607
#        157129
#        175120
#        191262
#        209293
#        218725
#        236805
#        259432
#        280515
#        301224
#        311244
#        332949
#
# Disc length: 4716 seconds
#
# Revision: 0
# Processed by: cddbd v1.5.2PL0 Copyright (c) Steve Scherf et al.
# Submitted via: CUERipper 2.1.5
#
DISCID=10126a13
DTITLE=Various Artist - Dundee Blues Bonanza 2008
DYEAR=2008
DGENRE=Blues
TTITLE0=Small Town Blues
TTITLE1=Lightning
TTITLE2=Feel Like Jumpin
TTITLE3=Wage Slave
TTITLE4=Dark Days
TTITLE5=Emotional Store
TTITLE6=St James Infirmary
TTITLE7=Long Time Over You
TTITLE8=rampton Blues
TTITLE9=Juke Box Boogie
TTITLE10=Positively Blue
TTITLE11=My Gal Sue
TTITLE12=Always Right Baby Blues
TTITLE13=Bourbon Street
TTITLE14=Young Boy
TTITLE15=Heartache in My House
TTITLE16=Nobodies Business
TTITLE17=You don't want me
TTITLE18=Tell Me Baby
EXTD=
EXTT0=
EXTT1=
EXTT2=
EXTT3=
EXTT4=
EXTT5=
EXTT6=
EXTT7=
EXTT8=
EXTT9=
EXTT10=
EXTT11=
EXTT12=
EXTT13=
EXTT14=
EXTT15=
EXTT16=
EXTT17=
EXTT18=
PLAYORDER=
